# xmcd
#
# Track frame offsets:
#	150
#	9676
#	22044
#	37343
#	50748
#	67459
#	80524
#	98719
#	116690
#	135072
#	152509
#
# Disc length: 2263 seconds
#
# Revision: 5
# Processed by: cddbd v1.5.1PL2 Copyright (c) Steve Scherf et al.
# Submitted via: EasyCDDAExtractor 8.0.2.1
#
DISCID=9408d50b
DTITLE=Alice Cooper - Medina Ballroom Medina 23-07-98 Disc 1
DYEAR=1998
DGENRE=Hard Rock
TTITLE0=Hello Hooray
TTITLE1=Sideshow
TTITLE2=Billion Dollar Babies
TTITLE3=No More Mr Nice Guy
TTITLE4=Public Enemy No 9
TTITLE5=Be My Lover
TTITLE6=Lost In America
TTITLE7=Eighteen
TTITLE8=From The Inside
TTITLE9=Only Women Bleed
TTITLE10=Steven
EXTD=
EXTT0=
EXTT1=
EXTT2=
EXTT3=
EXTT4=
EXTT5=
EXTT6=
EXTT7=
EXTT8=
EXTT9=
EXTT10=
PLAYORDER=
